<?xml version="1.0" encoding="utf-8"?>
<!-- Generator: Adobe Illustrator 22.1.0, SVG Export Plug-In . SVG Version: 6.00 Build 0)  -->
<svg version="1.1" id="Capa_1" xmlns="http://www.w3.org/2000/svg" xmlns:xlink="http://www.w3.org/1999/xlink" x="0px" y="0px"
	 viewBox="0 0 1024 768" style="enable-background:new 0 0 1024 768;" xml:space="preserve">
<style type="text/css">
	.st0{fill:#2ECC40;}
	.st1{opacity:0.92;fill:url(#SVGID_1_);}
	.st2{fill:#A700CC;}
	.st3{fill:url(#SVGID_2_);}
	.st4{opacity:0.86;fill:url(#SVGID_3_);}
	.st5{opacity:0.76;fill:url(#SVGID_4_);}
	.st6{opacity:0.87;fill:url(#SVGID_5_);}
</style>
<g>
	<circle class="st0" cx="29.7" cy="238.2" r="28.4"/>
	<linearGradient id="SVGID_1_" gradientUnits="userSpaceOnUse" x1="27.5854" y1="201.7569" x2="32.1069" y2="280.4648">
		<stop  offset="0" style="stop-color:#00FF00"/>
		<stop  offset="1" style="stop-color:#00FF00;stop-opacity:0"/>
	</linearGradient>
	<circle class="st1" cx="29.7" cy="238.2" r="28.4"/>
	<circle class="st2" cx="162.2" cy="238.2" r="28.4"/>
	<linearGradient id="SVGID_2_" gradientUnits="userSpaceOnUse" x1="165.3459" y1="188.0229" x2="158.4821" y2="298.6526">
		<stop  offset="0" style="stop-color:#FF7BAC"/>
		<stop  offset="1" style="stop-color:#FF7BAC;stop-opacity:0"/>
	</linearGradient>
	<circle class="st3" cx="162.2" cy="238.2" r="28.4"/>
	<path class="st2" d="M190.1,439.4l0.6-121.6c0-17.5-14.2-31.6-31.6-31.6c-17.5,0-31.6,14.2-31.6,31.6l0,17.8
		c0,17.5-14.2,31.6-31.6,31.6l12.9-0.1C150.9,367.1,185.5,398.7,190.1,439.4z"/>
	<linearGradient id="SVGID_3_" gradientUnits="userSpaceOnUse" x1="189.4087" y1="265.4899" x2="149.8548" y2="383.0189">
		<stop  offset="0" style="stop-color:#FF7BAC"/>
		<stop  offset="1" style="stop-color:#FF7BAC;stop-opacity:0"/>
	</linearGradient>
	<path class="st4" d="M190.1,439.4l0.6-121.6c0-17.5-14.2-31.6-31.6-31.6c-17.5,0-31.6,14.2-31.6,31.6l0,17.8
		c0,17.5-14.2,31.6-31.6,31.6l12.9-0.1C150.9,367.1,185.5,398.7,190.1,439.4z"/>
	<linearGradient id="SVGID_4_" gradientUnits="userSpaceOnUse" x1="125.1661" y1="460.383" x2="162.2011" y2="342.0361">
		<stop  offset="0" style="stop-color:#000000"/>
		<stop  offset="1" style="stop-color:#000000;stop-opacity:2.000000e-02"/>
	</linearGradient>
	<path class="st5" d="M190.1,439.4l0.6-121.6c0-17.5-14.2-31.6-31.6-31.6c-17.5,0-31.6,14.2-31.6,31.6l0,17.8
		c0,17.5-14.2,31.6-31.6,31.6l12.9-0.1C150.9,367.1,185.5,398.7,190.1,439.4z"/>
	<path class="st0" d="M190.1,439.4c-4.7-40.7-39.3-72.4-81.3-72.4l-12.9,0.1c-17.5,0-31.6-14.2-31.6-31.6l-0.1-17.8
		c0-17.5-14.2-31.6-31.6-31.6C15.2,286.2,1,300.3,1,317.8l0.1,121.7l94.3,118.8l-33.8-42.5h67.7L190.1,439.4
		C190.1,439.4,190.1,439.4,190.1,439.4z"/>
	<linearGradient id="SVGID_5_" gradientUnits="userSpaceOnUse" x1="45.1646" y1="287.1699" x2="87.32" y2="411.9998">
		<stop  offset="0" style="stop-color:#00FF00"/>
		<stop  offset="1" style="stop-color:#00FF00;stop-opacity:0"/>
	</linearGradient>
	<path class="st6" d="M190.1,439.4c-4.7-40.7-39.3-72.4-81.3-72.4l-12.9,0.1c-17.5,0-31.6-14.2-31.6-31.6l-0.1-17.8
		c0-17.5-14.2-31.6-31.6-31.6C15.2,286.2,1,300.3,1,317.8l0.1,121.7l94.3,118.8l-33.8-42.5h67.7L190.1,439.4
		C190.1,439.4,190.1,439.4,190.1,439.4z"/>
	<polygon class="st2" points="95.4,558.2 135,508.6 56,508.6 	"/>
</g>
<g>
	<path d="M343.8,404.7c-5.2,6.1-13.5,9.2-24.9,9.2h-30.5V336h30.5c11.4,0,19.7,3.1,24.9,9.3c5.2,6.2,7.8,16.2,7.8,30.2
		C351.5,388.8,348.9,398.6,343.8,404.7z M339.2,356.2c-1.6-4.6-4.2-7.8-7.7-9.6c-3.5-1.9-8.3-2.8-14.5-2.8h-18.8v62.3H317
		c5.8,0,10.5-0.8,14-2.5c3.5-1.7,6.1-4.8,7.9-9.2c1.8-4.4,2.7-10.8,2.7-19S340.8,360.8,339.2,356.2z"/>
	<path d="M375.7,363.8c2.8-1.9,6.1-3.5,10-5.1c3.8-1.5,7.6-2.7,11.3-3.4v7.7c-3.6,0.7-7.4,1.9-11.4,3.4c-4.1,1.5-7.3,3.1-9.6,4.7
		v42.7H366v-57.3h9L375.7,363.8z"/>
	<path d="M441.9,407.3c-2.5,2.7-5.5,4.6-9.1,5.9c-3.6,1.2-8,1.9-13.1,1.9c-5.8,0-10.6-1.5-14.5-4.5c-3.8-3-5.7-7.3-5.7-12.8
		s1.8-9.9,5.4-13.1c3.6-3.2,9.2-4.8,16.7-4.8h20v-3.5c0-3.2-0.4-5.7-1.3-7.6c-0.9-1.8-2.5-3.1-4.8-3.9c-2.3-0.8-5.7-1.2-10.2-1.2
		c-6.7,0-13.1,1-19.1,3.1v-8.2c5.7-2.2,12.5-3.3,20.4-3.3c8.2,0,14.4,1.7,18.4,5c4,3.3,6,8.7,6,16v37.5h-8.3L441.9,407.3z
		 M421.8,387.5c-4.4,0-7.6,0.8-9.6,2.5c-2,1.7-3,4.3-3,7.8c0,3.3,1.1,5.7,3.3,7.1c2.2,1.4,5.4,2.1,9.7,2.1c8.1,0,14.6-2.8,19.4-8.3
		v-11.1H421.8z"/>
	<path d="M500.4,372.3l-13.7,41.6h-9.9l-15-57.3h9.9l11.3,46.1l12.8-39.4v-6.7h7.6l14.2,46.1l11.3-46.1h9.9l-15,57.3h-9.9
		L500.4,372.3z"/>
	<path d="M570.9,348.5h-24V336H611v12.6h-23.8v65.3h-16.3V348.5z"/>
	<path d="M603.6,385.2c0-9.7,2.6-17.1,7.7-22.2c5.1-5.1,12.9-7.7,23.4-7.7c10.5,0,18.3,2.6,23.5,7.7c5.2,5.1,7.7,12.5,7.7,22.2
		c0,19.9-10.4,29.9-31.2,29.9C614,415.1,603.6,405.1,603.6,385.2z M646.1,397.5c2.2-2.4,3.3-6.5,3.3-12.3s-1.1-9.9-3.3-12.3
		c-2.2-2.4-6-3.6-11.3-3.6c-5.2,0-9,1.2-11.2,3.6c-2.2,2.4-3.3,6.5-3.3,12.3s1.1,9.9,3.3,12.3c2.2,2.4,5.9,3.6,11.2,3.6
		C640.1,401.2,643.8,400,646.1,397.5z"/>
	<path d="M684,434.3c-4.5-0.6-8.2-1.4-11.2-2.4v-12.2c3.1,1,6.9,1.9,11.2,2.5c4.3,0.6,8.4,0.9,12.4,0.9c5.7,0,9.8-0.3,12.2-0.9
		c2.4-0.6,3.6-1.7,3.6-3.2c0-1.3-0.6-2.2-1.7-2.7c-1.1-0.5-3.4-0.7-6.8-0.7h-15.6c-5.1,0-8.9-1-11.5-2.9c-2.6-1.9-3.9-4.8-3.9-8.5
		c0-2.4,0.7-4.6,2-6.5c1.3-1.9,3.4-3.4,6.1-4.5c-6.5-3.3-9.8-8.9-9.8-16.7c0-7.3,2.3-12.6,6.8-16c4.6-3.4,11.4-5.1,20.5-5.1
		c1.7,0,3.6,0.1,5.8,0.4c2.2,0.2,4,0.5,5.3,0.8h21.5l-0.4,10.3h-9.1c2.5,2.3,3.8,5.6,3.8,9.8c0,6-1.9,10.8-5.7,14.2
		c-3.8,3.4-9.2,5.1-16.3,5.1c-2.2,0-4.6-0.2-7.3-0.6c-2.6,0.3-4.7,0.9-6.2,1.8c-1.6,0.8-2.4,1.9-2.4,3.2c0,1,0.4,1.8,1.2,2.2
		c0.8,0.4,2.1,0.6,3.8,0.6h16.2c5.8,0,10.3,1.3,13.4,4c3.1,2.7,4.7,6.5,4.7,11.4c0,11.1-9.9,16.7-29.6,16.7
		C692.9,435.2,688.5,434.9,684,434.3z M708.7,384.3c1.9-1.7,2.9-4.5,2.9-8.4c0-4-1-6.9-2.9-8.7c-1.9-1.7-5.3-2.6-10-2.6
		c-4.6,0-7.9,0.9-9.9,2.6c-2,1.7-3,4.6-3,8.7c0,3.9,1,6.7,2.9,8.3c1.9,1.7,5.3,2.5,10,2.5C703.4,386.8,706.7,386,708.7,384.3z"/>
	<path d="M743.6,407.5c-5.7-5-8.5-12.5-8.5-22.4c0-9.4,2.5-16.7,7.4-21.9c5-5.2,12.2-7.9,21.7-7.9c8.7,0,15.5,2.3,20.3,6.8
		c4.8,4.6,7.2,10.7,7.2,18.3v10.4h-41.5c0.8,4.4,2.8,7.5,6.1,9.3c3.3,1.8,8.1,2.7,14.5,2.7c3.1,0,6.2-0.3,9.4-0.8
		c3.2-0.6,5.9-1.3,8.2-2.2v11.6c-5.3,2.4-12.3,3.6-20.9,3.6C757.2,415.1,749.3,412.6,743.6,407.5z M777.4,380.9v-3.1
		c0-7.1-4.2-10.6-12.7-10.6c-5.3,0-9.1,1.1-11.3,3.2c-2.2,2.1-3.3,5.7-3.3,10.6H777.4z"/>
	<path d="M811.1,410c-3.2-3.4-4.8-8.1-4.8-14.3v-26.6h-8.1v-12.6h8.1v-12.3l16.3-4.8v17.2h14.5l-1,12.6h-13.6v25.5
		c0,3.1,0.7,5.2,2.1,6.4c1.4,1.2,3.7,1.8,6.8,1.8c2.3,0,4.6-0.4,7-1.2v11.3c-3.6,1.5-7.9,2.2-12.8,2.2
		C819.3,415.1,814.4,413.4,811.1,410z"/>
	<path d="M847.6,332.3h16.3v29c2.5-1.9,5.4-3.3,8.8-4.4c3.3-1.1,7-1.6,10.8-1.6c7.5,0,13,1.8,16.5,5.3s5.3,9,5.3,16.5v36.8h-16.3
		v-35.9c0-4-0.8-6.7-2.4-8.3c-1.6-1.6-4.5-2.4-8.7-2.4c-2.5,0-5,0.5-7.5,1.6c-2.5,1.1-4.6,2.5-6.4,4.3v40.7h-16.3V332.3z"/>
	<path d="M924.7,407.5c-5.7-5-8.5-12.5-8.5-22.4c0-9.4,2.5-16.7,7.4-21.9c5-5.2,12.2-7.9,21.7-7.9c8.7,0,15.5,2.3,20.3,6.8
		c4.8,4.6,7.2,10.7,7.2,18.3v10.4h-41.5c0.8,4.4,2.8,7.5,6.1,9.3c3.3,1.8,8.1,2.7,14.5,2.7c3.1,0,6.2-0.3,9.4-0.8
		c3.2-0.6,5.9-1.3,8.2-2.2v11.6c-5.3,2.4-12.3,3.6-20.9,3.6C938.3,415.1,930.4,412.6,924.7,407.5z M958.5,380.9v-3.1
		c0-7.1-4.2-10.6-12.7-10.6c-5.3,0-9.1,1.1-11.3,3.2c-2.2,2.1-3.3,5.7-3.3,10.6H958.5z"/>
	<path d="M984.2,356.5h15.1l0.7,5.9c2.7-1.7,5.9-3.2,9.7-4.5c3.8-1.3,7.5-2.2,11.3-2.7v12.3c-3.5,0.5-7.2,1.3-11.1,2.5
		c-4,1.2-7.1,2.4-9.3,3.7v40h-16.3V356.5z"/>
</g>
</svg>
