<?xml version="1.0" encoding="utf-8"?>
<!-- Generator: Adobe Illustrator 22.1.0, SVG Export Plug-In . SVG Version: 6.00 Build 0)  -->
<svg version="1.1" id="Capa_1" xmlns="http://www.w3.org/2000/svg" xmlns:xlink="http://www.w3.org/1999/xlink" x="0px" y="0px"
	 viewBox="0 0 500 500" style="enable-background:new 0 0 500 500;" xml:space="preserve">
<style type="text/css">
	.st0{fill:#FFFFFF;stroke:#FFFFFF;stroke-miterlimit:10;}
	.st1{fill:#2ECC40;}
	.st2{opacity:0.92;fill:url(#SVGID_1_);}
	.st3{fill:#A700CC;}
	.st4{fill:url(#SVGID_2_);}
	.st5{opacity:0.86;fill:url(#SVGID_3_);}
	.st6{opacity:0.76;fill:url(#SVGID_4_);}
	.st7{opacity:0.87;fill:url(#SVGID_5_);}
	.st8{opacity:0.87;fill:url(#SVGID_6_);}
	.st9{opacity:0.87;fill:url(#SVGID_7_);}
</style>
<path class="st0" d="M379.4,0.5H120.6C54.5,0.5,0.8,54.2,0.8,120.4v259.3c0,66.2,53.7,119.9,119.9,119.9h258.7
	c66.2,0,119.9-53.7,119.9-119.9V120.4C499.2,54.2,445.5,0.5,379.4,0.5z"/>
<g>
	<path class="st1" d="M180.3,132.7c18.5,2.3,34.1-13.3,31.8-31.8c-1.6-12.6-11.8-22.8-24.4-24.4c-18.5-2.3-34.1,13.3-31.8,31.8
		C157.4,120.9,167.6,131.1,180.3,132.7z"/>
	<linearGradient id="SVGID_1_" gradientUnits="userSpaceOnUse" x1="181.8609" y1="68.1999" x2="186.3714" y2="146.7165">
		<stop  offset="0" style="stop-color:#00FF00"/>
		<stop  offset="1" style="stop-color:#00FF00;stop-opacity:0"/>
	</linearGradient>
	<path class="st2" d="M180.3,132.7c18.5,2.3,34.1-13.3,31.8-31.8c-1.6-12.6-11.8-22.8-24.4-24.4c-18.5-2.3-34.1,13.3-31.8,31.8
		C157.4,120.9,167.6,131.1,180.3,132.7z"/>
	
		<ellipse transform="matrix(0.7071 -0.7071 0.7071 0.7071 18.6805 254.1955)" class="st3" cx="316.2" cy="104.5" rx="28.4" ry="28.3"/>
	<linearGradient id="SVGID_2_" gradientUnits="userSpaceOnUse" x1="319.2866" y1="54.4984" x2="312.4394" y2="164.8612">
		<stop  offset="0" style="stop-color:#FF7BAC"/>
		<stop  offset="1" style="stop-color:#FF7BAC;stop-opacity:0"/>
	</linearGradient>
	<path class="st4" d="M312.5,132.7c18.5,2.3,34.1-13.3,31.8-31.8c-1.6-12.6-11.8-22.8-24.4-24.4c-18.5-2.3-34.1,13.3-31.8,31.8
		C289.7,120.9,299.9,131.1,312.5,132.7z"/>
	<path class="st3" d="M344,305.3l0.6-121.3c0-17.4-14.1-31.5-31.5-31.5c-17.4,0-31.5,14.1-31.5,31.5l0,17.7
		c0,17.4-14.1,31.5-31.5,31.5l12.9-0.1C304.8,233.1,339.3,264.7,344,305.3z"/>
	<linearGradient id="SVGID_3_" gradientUnits="userSpaceOnUse" x1="343.2908" y1="131.778" x2="303.8331" y2="249.0213">
		<stop  offset="0" style="stop-color:#FF7BAC"/>
		<stop  offset="1" style="stop-color:#FF7BAC;stop-opacity:0"/>
	</linearGradient>
	<path class="st5" d="M344,305.3l0.6-121.3c0-17.4-14.1-31.5-31.5-31.5c-17.4,0-31.5,14.1-31.5,31.5l0,17.7
		c0,17.4-14.1,31.5-31.5,31.5l12.9-0.1C304.8,233.1,339.3,264.7,344,305.3z"/>
	<linearGradient id="SVGID_4_" gradientUnits="userSpaceOnUse" x1="279.2044" y1="326.1973" x2="316.1494" y2="208.1382">
		<stop  offset="0" style="stop-color:#000000"/>
		<stop  offset="1" style="stop-color:#000000;stop-opacity:2.000000e-02"/>
	</linearGradient>
	<path class="st6" d="M344,305.3l0.6-121.3c0-17.4-14.1-31.5-31.5-31.5c-17.4,0-31.5,14.1-31.5,31.5l0,17.7
		c0,17.4-14.1,31.5-31.5,31.5l12.9-0.1C304.8,233.1,339.3,264.7,344,305.3z"/>
	<polygon class="st1" points="249.5,423.8 249.5,423.8 249.5,423.8 	"/>
	<linearGradient id="SVGID_5_" gradientUnits="userSpaceOnUse" x1="249.5026" y1="423.7724" x2="249.5112" y2="423.7978">
		<stop  offset="0" style="stop-color:#00FF00"/>
		<stop  offset="1" style="stop-color:#00FF00;stop-opacity:0"/>
	</linearGradient>
	<polygon class="st7" points="249.5,423.8 249.5,423.8 249.5,423.8 	"/>
	<polygon class="st1" points="283.4,381.4 287.5,376.2 283.4,381.4 	"/>
	<linearGradient id="SVGID_6_" gradientUnits="userSpaceOnUse" x1="208.3092" y1="150.3958" x2="250.362" y2="274.9222">
		<stop  offset="0" style="stop-color:#00FF00"/>
		<stop  offset="1" style="stop-color:#00FF00;stop-opacity:0"/>
	</linearGradient>
	<polygon class="st8" points="283.4,381.4 287.5,376.2 283.4,381.4 	"/>
	<path class="st1" d="M344,305.3c-4.7-40.6-39.2-72.2-81.1-72.2l-12.9,0.1c-17.4,0-31.5-14.1-31.5-31.5l-0.1-17.7
		c0-17.4-14.1-31.5-31.5-31.5c-17.4,0-31.5,14.1-31.5,31.5l0.1,121.4l54.8,69H289L344,305.3C344,305.3,344,305.3,344,305.3z"/>
	<linearGradient id="SVGID_7_" gradientUnits="userSpaceOnUse" x1="199.3974" y1="153.4053" x2="241.4503" y2="277.9317">
		<stop  offset="0" style="stop-color:#00FF00"/>
		<stop  offset="1" style="stop-color:#00FF00;stop-opacity:0"/>
	</linearGradient>
	<path class="st9" d="M344,305.3c-4.7-40.6-39.2-72.2-81.1-72.2l-12.9,0.1c-17.4,0-31.5-14.1-31.5-31.5l-0.1-17.7
		c0-17.4-14.1-31.5-31.5-31.5c-17.4,0-31.5,14.1-31.5,31.5l0.1,121.4l54.8,69H289L344,305.3C344,305.3,344,305.3,344,305.3z"/>
	<polygon class="st3" points="210.2,374.3 249.5,423.8 249.5,423.8 249.5,423.8 283.4,381.4 287.5,376.2 289,374.3 289,374.3 
		210.2,374.3 	"/>
</g>
</svg>
