<?xml version="1.0" encoding="utf-8"?>
<!-- Generator: Adobe Illustrator 22.1.0, SVG Export Plug-In . SVG Version: 6.00 Build 0)  -->
<svg version="1.1" id="Capa_1" xmlns="http://www.w3.org/2000/svg" xmlns:xlink="http://www.w3.org/1999/xlink" x="0px" y="0px"
	 viewBox="0 0 500 500" style="enable-background:new 0 0 500 500;" xml:space="preserve">
<style type="text/css">
	.st0{fill:#2ECC40;}
	.st1{opacity:0.92;fill:url(#SVGID_1_);}
	.st2{fill:#A700CC;}
	.st3{fill:url(#SVGID_2_);}
	.st4{opacity:0.86;fill:url(#SVGID_3_);}
	.st5{opacity:0.76;fill:url(#SVGID_4_);}
	.st6{opacity:0.87;fill:url(#SVGID_5_);}
	.st7{opacity:0.87;fill:url(#SVGID_6_);}
	.st8{opacity:0.87;fill:url(#SVGID_7_);}
</style>
<g>
	<ellipse transform="matrix(0.9732 -0.2298 0.2298 0.9732 -5.2366 36.7088)" class="st0" cx="155" cy="40.8" rx="40.8" ry="40.8"/>
	<linearGradient id="SVGID_1_" gradientUnits="userSpaceOnUse" x1="152.0165" y1="-11.4269" x2="158.5026" y2="101.4793">
		<stop  offset="0" style="stop-color:#00FF00"/>
		<stop  offset="1" style="stop-color:#00FF00;stop-opacity:0"/>
	</linearGradient>
	<circle class="st1" cx="155" cy="40.8" r="40.8"/>
	
		<ellipse transform="matrix(0.9732 -0.2298 0.2298 0.9732 -0.1499 80.3962)" class="st2" cx="345.2" cy="40.8" rx="40.8" ry="40.8"/>
	<linearGradient id="SVGID_2_" gradientUnits="userSpaceOnUse" x1="349.6334" y1="-31.1282" x2="339.7873" y2="127.5697">
		<stop  offset="0" style="stop-color:#FF7BAC"/>
		<stop  offset="1" style="stop-color:#FF7BAC;stop-opacity:0"/>
	</linearGradient>
	<circle class="st3" cx="345.2" cy="40.8" r="40.8"/>
	<path class="st2" d="M385.2,329.5l0.9-174.5c0-25.1-20.3-45.4-45.4-45.4S295.4,130,295.4,155l0,25.5c0,25.1-20.3,45.4-45.4,45.4
		l18.6-0.1C328.8,225.7,378.5,271.1,385.2,329.5z"/>
	<linearGradient id="SVGID_3_" gradientUnits="userSpaceOnUse" x1="384.1513" y1="79.9979" x2="327.4115" y2="248.5927">
		<stop  offset="0" style="stop-color:#FF7BAC"/>
		<stop  offset="1" style="stop-color:#FF7BAC;stop-opacity:0"/>
	</linearGradient>
	<path class="st4" d="M385.2,329.5l0.9-174.5c0-25.1-20.3-45.4-45.4-45.4S295.4,130,295.4,155l0,25.5c0,25.1-20.3,45.4-45.4,45.4
		l18.6-0.1C328.8,225.7,378.5,271.1,385.2,329.5z"/>
	<linearGradient id="SVGID_4_" gradientUnits="userSpaceOnUse" x1="291.9956" y1="359.5712" x2="345.1222" y2="189.8031">
		<stop  offset="0" style="stop-color:#000000"/>
		<stop  offset="1" style="stop-color:#000000;stop-opacity:2.000000e-02"/>
	</linearGradient>
	<path class="st5" d="M385.2,329.5l0.9-174.5c0-25.1-20.3-45.4-45.4-45.4S295.4,130,295.4,155l0,25.5c0,25.1-20.3,45.4-45.4,45.4
		l18.6-0.1C328.8,225.7,378.5,271.1,385.2,329.5z"/>
	<path class="st0" d="M385.2,329.5c-6.7-58.4-56.3-103.8-116.6-103.8l-18.6,0.1c-25.1,0-45.4-20.3-45.4-45.4l-0.1-25.5
		c0-25.1-20.3-45.4-45.4-45.4c-25.1,0-45.4,20.3-45.4,45.4l0.2,174.5l78.7,99.2h113.3L385.2,329.5
		C385.2,329.5,385.2,329.5,385.2,329.5z"/>
	<linearGradient id="SVGID_5_" gradientUnits="userSpaceOnUse" x1="177.2339" y1="111.0978" x2="237.7056" y2="290.1657">
		<stop  offset="0" style="stop-color:#00FF00"/>
		<stop  offset="1" style="stop-color:#00FF00;stop-opacity:0"/>
	</linearGradient>
	<path class="st6" d="M385.2,329.5c-6.7-58.4-56.3-103.8-116.6-103.8l-18.6,0.1c-25.1,0-45.4-20.3-45.4-45.4l-0.1-25.5
		c0-25.1-20.3-45.4-45.4-45.4c-25.1,0-45.4,20.3-45.4,45.4l0.2,174.5l78.7,99.2h113.3L385.2,329.5
		C385.2,329.5,385.2,329.5,385.2,329.5z"/>
	<polygon class="st0" points="249.3,499.9 249.3,499.9 249.3,499.9 	"/>
	<linearGradient id="SVGID_6_" gradientUnits="userSpaceOnUse" x1="249.2848" y1="499.8831" x2="249.2971" y2="499.9196">
		<stop  offset="0" style="stop-color:#00FF00"/>
		<stop  offset="1" style="stop-color:#00FF00;stop-opacity:0"/>
	</linearGradient>
	<polygon class="st7" points="249.3,499.9 249.3,499.9 249.3,499.9 	"/>
	<polygon class="st0" points="298,438.9 303.9,431.5 298,438.9 	"/>
	<linearGradient id="SVGID_7_" gradientUnits="userSpaceOnUse" x1="190.032" y1="106.7759" x2="250.5037" y2="285.8438">
		<stop  offset="0" style="stop-color:#00FF00"/>
		<stop  offset="1" style="stop-color:#00FF00;stop-opacity:0"/>
	</linearGradient>
	<polygon class="st8" points="298,438.9 303.9,431.5 298,438.9 	"/>
	<polygon class="st2" points="192.8,428.7 249.3,499.9 249.3,499.9 249.3,499.9 298,438.9 303.9,431.5 306.1,428.7 306.1,428.7 
		192.8,428.7 	"/>
</g>
</svg>
