<?xml version="1.0" encoding="utf-8"?>
<!-- Generator: Adobe Illustrator 22.1.0, SVG Export Plug-In . SVG Version: 6.00 Build 0)  -->
<svg version="1.1" id="Capa_1" xmlns="http://www.w3.org/2000/svg" xmlns:xlink="http://www.w3.org/1999/xlink" x="0px" y="0px"
	 viewBox="0 0 1024 768" style="enable-background:new 0 0 1024 768;" xml:space="preserve">
<style type="text/css">
	.st0{fill:#2ECC40;}
	.st1{opacity:0.92;fill:url(#SVGID_1_);}
	.st2{fill:#A700CC;}
	.st3{fill:url(#SVGID_2_);}
	.st4{opacity:0.86;fill:url(#SVGID_3_);}
	.st5{opacity:0.76;fill:url(#SVGID_4_);}
	.st6{opacity:0.87;fill:url(#SVGID_5_);}
	.st7{opacity:0.87;fill:url(#SVGID_6_);}
	.st8{opacity:0.87;fill:url(#SVGID_7_);}
</style>
<g>
	<circle class="st0" cx="406.6" cy="43.9" r="43.6"/>
	<linearGradient id="SVGID_1_" gradientUnits="userSpaceOnUse" x1="403.4171" y1="-11.9337" x2="410.3506" y2="108.7616">
		<stop  offset="0" style="stop-color:#00FF00"/>
		<stop  offset="1" style="stop-color:#00FF00;stop-opacity:0"/>
	</linearGradient>
	<circle class="st1" cx="406.6" cy="43.9" r="43.6"/>
	
		<ellipse transform="matrix(0.3827 -0.9239 0.9239 0.3827 335.9013 590.5938)" class="st2" cx="609.9" cy="43.9" rx="43.6" ry="43.6"/>
	<linearGradient id="SVGID_2_" gradientUnits="userSpaceOnUse" x1="614.6669" y1="-32.9941" x2="604.1417" y2="136.6519">
		<stop  offset="0" style="stop-color:#FF7BAC"/>
		<stop  offset="1" style="stop-color:#FF7BAC;stop-opacity:0"/>
	</linearGradient>
	<circle class="st3" cx="609.9" cy="43.9" r="43.6"/>
	<path class="st2" d="M652.7,352.5l1-186.5c0-26.8-21.7-48.5-48.5-48.5c-26.8,0-48.5,21.7-48.5,48.5l0,27.2
		c0,26.8-21.7,48.5-48.5,48.5l19.8-0.2C592.4,241.6,645.5,290.1,652.7,352.5z"/>
	<linearGradient id="SVGID_3_" gradientUnits="userSpaceOnUse" x1="651.5662" y1="85.7983" x2="590.912" y2="266.024">
		<stop  offset="0" style="stop-color:#FF7BAC"/>
		<stop  offset="1" style="stop-color:#FF7BAC;stop-opacity:0"/>
	</linearGradient>
	<path class="st4" d="M652.7,352.5l1-186.5c0-26.8-21.7-48.5-48.5-48.5c-26.8,0-48.5,21.7-48.5,48.5l0,27.2
		c0,26.8-21.7,48.5-48.5,48.5l19.8-0.2C592.4,241.6,645.5,290.1,652.7,352.5z"/>
	<linearGradient id="SVGID_4_" gradientUnits="userSpaceOnUse" x1="553.0529" y1="384.6585" x2="609.8446" y2="203.1787">
		<stop  offset="0" style="stop-color:#000000"/>
		<stop  offset="1" style="stop-color:#000000;stop-opacity:2.000000e-02"/>
	</linearGradient>
	<path class="st5" d="M652.7,352.5l1-186.5c0-26.8-21.7-48.5-48.5-48.5c-26.8,0-48.5,21.7-48.5,48.5l0,27.2
		c0,26.8-21.7,48.5-48.5,48.5l19.8-0.2C592.4,241.6,645.5,290.1,652.7,352.5z"/>
	<polygon class="st0" points="559.4,469.5 565.8,461.5 559.4,469.5 	"/>
	<linearGradient id="SVGID_5_" gradientUnits="userSpaceOnUse" x1="444.0619" y1="114.4212" x2="508.7054" y2="305.8425">
		<stop  offset="0" style="stop-color:#00FF00"/>
		<stop  offset="1" style="stop-color:#00FF00;stop-opacity:0"/>
	</linearGradient>
	<polygon class="st6" points="559.4,469.5 565.8,461.5 559.4,469.5 	"/>
	<path class="st0" d="M652.7,352.5c-7.2-62.5-60.2-111-124.6-111l-19.8,0.2c-26.8,0-48.5-21.7-48.5-48.5l-0.1-27.2
		c0-26.8-21.7-48.5-48.5-48.5c-26.8,0-48.5,21.7-48.5,48.5l0.2,186.6l84.2,106h121.1L652.7,352.5
		C652.7,352.6,652.7,352.5,652.7,352.5z"/>
	<linearGradient id="SVGID_6_" gradientUnits="userSpaceOnUse" x1="430.3741" y1="119.0436" x2="495.0175" y2="310.4649">
		<stop  offset="0" style="stop-color:#00FF00"/>
		<stop  offset="1" style="stop-color:#00FF00;stop-opacity:0"/>
	</linearGradient>
	<path class="st7" d="M652.7,352.5c-7.2-62.5-60.2-111-124.6-111l-19.8,0.2c-26.8,0-48.5-21.7-48.5-48.5l-0.1-27.2
		c0-26.8-21.7-48.5-48.5-48.5c-26.8,0-48.5,21.7-48.5,48.5l0.2,186.6l84.2,106h121.1L652.7,352.5
		C652.7,352.6,652.7,352.5,652.7,352.5z"/>
	<polygon class="st0" points="507.4,534.7 507.4,534.7 507.4,534.7 	"/>
	<linearGradient id="SVGID_7_" gradientUnits="userSpaceOnUse" x1="507.3955" y1="534.6504" x2="507.4086" y2="534.6893">
		<stop  offset="0" style="stop-color:#00FF00"/>
		<stop  offset="1" style="stop-color:#00FF00;stop-opacity:0"/>
	</linearGradient>
	<polygon class="st8" points="507.4,534.7 507.4,534.7 507.4,534.7 	"/>
	<polygon class="st2" points="447,458.6 507.4,534.7 507.4,534.7 507.4,534.7 559.4,469.5 565.8,461.5 568.1,458.6 568.1,458.6 
		447,458.6 	"/>
</g>
<g>
	<path d="M139.7,731.1c-6.2,7.3-16.1,11-29.9,11H73.3v-93.3h36.5c13.6,0,23.5,3.7,29.8,11.1c6.2,7.4,9.3,19.4,9.3,36.2
		C148.9,712.1,145.8,723.8,139.7,731.1z M134.1,673.1c-1.9-5.5-5-9.3-9.2-11.5c-4.2-2.2-10-3.3-17.3-3.3H85.2v74.6h22.5
		c7,0,12.5-1,16.7-3c4.2-2,7.4-5.7,9.5-11c2.1-5.3,3.2-12.9,3.2-22.8S136.1,678.5,134.1,673.1z"/>
	<path d="M177.9,682.1c3.4-2.2,7.4-4.2,12-6.1c4.6-1.8,9.1-3.2,13.5-4.1v9.3c-4.3,0.9-8.8,2.2-13.7,4.1c-4.9,1.8-8.7,3.7-11.5,5.7
		v51.2h-11.9v-68.7H177L177.9,682.1z"/>
	<path d="M257.2,734.3c-3,3.2-6.6,5.5-10.9,7c-4.3,1.5-9.5,2.2-15.7,2.2c-7,0-12.7-1.8-17.3-5.4c-4.6-3.6-6.9-8.7-6.9-15.4
		c0-6.7,2.2-11.9,6.5-15.7c4.3-3.8,11-5.7,20-5.7h23.9v-4.2c0-3.9-0.5-6.9-1.6-9.1c-1.1-2.2-3-3.7-5.8-4.7c-2.8-1-6.9-1.4-12.2-1.4
		c-8,0-15.7,1.3-22.9,3.8v-9.9c6.9-2.6,15-3.9,24.5-3.9c9.9,0,17.2,2,22,6c4.8,4,7.2,10.4,7.2,19.2v44.9h-10L257.2,734.3z
		 M233.1,710.5c-5.3,0-9.2,1-11.5,3c-2.4,2-3.6,5.1-3.6,9.3c0,4,1.3,6.8,3.9,8.5c2.6,1.7,6.5,2.5,11.6,2.5c9.8,0,17.5-3.3,23.2-10
		v-13.3H233.1z"/>
	<path d="M327.3,692.3l-16.4,49.8h-11.9l-18-68.7H293l13.5,55.2l15.4-47.2v-8h9.1l17,55.2l13.5-55.2h11.9l-18,68.7h-11.9
		L327.3,692.3z"/>
	<path d="M411.6,663.9H383v-15.1h76.8v15.1h-28.5v78.3h-19.6V663.9z"/>
	<path d="M450.9,707.8c0-11.6,3.1-20.5,9.2-26.6c6.1-6.1,15.5-9.2,28-9.2c12.6,0,21.9,3.1,28.1,9.2c6.2,6.1,9.3,15,9.3,26.6
		c0,23.9-12.5,35.8-37.4,35.8C463.3,743.6,450.9,731.6,450.9,707.8z M501.7,722.6c2.7-2.9,4-7.8,4-14.8s-1.3-11.9-4-14.8
		c-2.7-2.9-7.2-4.3-13.5-4.3c-6.3,0-10.7,1.4-13.4,4.3c-2.7,2.9-4,7.8-4,14.8s1.3,11.9,4,14.8c2.7,2.9,7.1,4.3,13.4,4.3
		C494.5,726.9,499.1,725.5,501.7,722.6z"/>
	<path d="M547.2,766.6c-5.4-0.7-9.8-1.6-13.4-2.9v-14.6c3.8,1.3,8.2,2.2,13.4,3c5.2,0.7,10.1,1.1,14.9,1.1c6.9,0,11.7-0.4,14.6-1.1
		c2.9-0.7,4.3-2,4.3-3.8c0-1.5-0.7-2.6-2-3.2c-1.4-0.6-4.1-0.9-8.1-0.9h-18.7c-6.1,0-10.7-1.2-13.8-3.5c-3.1-2.3-4.6-5.7-4.6-10.1
		c0-2.9,0.8-5.5,2.4-7.8c1.6-2.3,4-4.1,7.3-5.4c-7.8-4-11.7-10.6-11.7-20c0-8.7,2.7-15.1,8.2-19.2c5.5-4.1,13.6-6.2,24.6-6.2
		c2,0,4.3,0.1,7,0.4c2.6,0.3,4.7,0.6,6.4,1h25.8l-0.4,12.3h-10.9c3,2.8,4.5,6.7,4.5,11.7c0,7.2-2.3,12.9-6.8,17
		c-4.5,4.1-11.1,6.2-19.6,6.2c-2.6,0-5.5-0.2-8.7-0.7c-3.1,0.4-5.6,1.1-7.5,2.1c-1.9,1-2.8,2.3-2.8,3.8c0,1.3,0.5,2.1,1.4,2.6
		c1,0.5,2.5,0.7,4.5,0.7h19.4c7,0,12.3,1.6,16.1,4.8c3.8,3.2,5.7,7.7,5.7,13.6c0,13.3-11.8,20-35.5,20
		C557.9,767.6,552.6,767.3,547.2,766.6z M576.7,706.7c2.3-2,3.5-5.3,3.5-10.1c0-4.8-1.2-8.3-3.5-10.4c-2.3-2.1-6.3-3.1-12-3.1
		c-5.5,0-9.5,1-11.9,3.1c-2.4,2.1-3.6,5.5-3.6,10.4c0,4.6,1.2,8,3.5,10c2.3,2,6.3,3,12,3C570.4,709.7,574.4,708.7,576.7,706.7z"/>
	<path d="M618.5,734.5c-6.8-6-10.2-15-10.2-26.9c0-11.2,3-19.9,8.9-26.2c5.9-6.3,14.6-9.4,26-9.4c10.4,0,18.5,2.7,24.3,8.2
		c5.7,5.5,8.6,12.8,8.6,22v12.5h-49.7c1,5.3,3.4,9,7.3,11.2c3.9,2.1,9.7,3.2,17.3,3.2c3.7,0,7.4-0.3,11.2-1c3.8-0.7,7.1-1.5,9.8-2.6
		v13.9c-6.4,2.9-14.7,4.3-25.1,4.3C634.8,743.6,625.3,740.6,618.5,734.5z M659,702.6v-3.8c0-8.5-5.1-12.8-15.2-12.8
		c-6.4,0-10.9,1.3-13.5,3.8c-2.6,2.6-3.9,6.8-3.9,12.7H659z"/>
	<path d="M699.4,737.5c-3.9-4.1-5.8-9.8-5.8-17.1v-31.9h-9.7v-15.1h9.7v-14.8l19.6-5.8v20.6h17.4l-1.2,15.1h-16.2v30.6
		c0,3.7,0.8,6.2,2.5,7.7c1.7,1.4,4.4,2.2,8.2,2.2c2.7,0,5.5-0.5,8.4-1.4V741c-4.3,1.7-9.5,2.6-15.4,2.6
		C709.2,743.6,703.3,741.5,699.4,737.5z"/>
	<path d="M743.1,644.5h19.6v34.8c3-2.2,6.5-4,10.5-5.3c4-1.3,8.3-2,13-2c9,0,15.6,2.1,19.8,6.3c4.2,4.2,6.3,10.8,6.3,19.8v44.1
		h-19.6v-43c0-4.7-1-8-2.9-9.9c-1.9-1.9-5.4-2.8-10.4-2.8c-3,0-6,0.7-9,2c-3,1.3-5.6,3-7.7,5.1v48.7h-19.6V644.5z"/>
	<path d="M835.4,734.5c-6.8-6-10.2-15-10.2-26.9c0-11.2,3-19.9,8.9-26.2c5.9-6.3,14.6-9.4,26-9.4c10.4,0,18.5,2.7,24.3,8.2
		c5.7,5.5,8.6,12.8,8.6,22v12.5h-49.7c1,5.3,3.4,9,7.3,11.2c3.9,2.1,9.7,3.2,17.3,3.2c3.7,0,7.4-0.3,11.2-1c3.8-0.7,7.1-1.5,9.8-2.6
		v13.9c-6.4,2.9-14.7,4.3-25.1,4.3C851.7,743.6,842.2,740.6,835.4,734.5z M875.9,702.6v-3.8c0-8.5-5.1-12.8-15.2-12.8
		c-6.4,0-10.9,1.3-13.5,3.8c-2.6,2.6-3.9,6.8-3.9,12.7H875.9z"/>
	<path d="M906.7,673.4h18.1l0.9,7.1c3.2-2,7-3.8,11.6-5.4c4.5-1.5,9-2.6,13.5-3.2v14.8c-4.2,0.6-8.6,1.6-13.3,3
		c-4.7,1.4-8.5,2.9-11.2,4.4v48h-19.6V673.4z"/>
</g>
</svg>
